<svg id="Capa_1" enable-background="new 0 0 512 512" height="512" viewBox="0 0 512 512" width="512" xmlns="http://www.w3.org/2000/svg"><g><g><g><g><g><g><path d="m399.612 233.43h-166.013v228.162h179.643v-214.532c0-7.527-6.102-13.63-13.63-13.63z" fill="#f7f4f7"/><path d="m459.523 233.43h-63.144c7.528 0 13.63 6.102 13.63 13.63v214.532h63.144v-214.532c0-7.527-6.102-13.63-13.63-13.63z" fill="#edeaed"/><g><g><g><path d="m214.419 35.824-141.526-11.092c-7.923-.621-14.695 5.641-14.695 13.588v36.882l162.902 12.767v-40.426c0-4.961-2.665-9.335-6.681-11.719z" fill="#edeaed"/></g><path d="m267.133 39.955-58.155-4.558c4.445 2.262 7.455 6.872 7.455 12.146v40.06l63.265 4.958v-39.018c0-7.114-5.472-13.032-12.565-13.588z" fill="#d1ccd3"/><path d="m234.896 72.006-181.354-14.213c-7.923-.621-14.695 5.641-14.695 13.588v390.211h201.604v-378.621c0-4.48-2.177-8.475-5.555-10.965z" fill="#c1bcc4"/><path d="m286.484 76.049-56.844-4.455c3.712 2.447 6.144 6.641 6.144 11.377v378.621h63.265v-371.955c0-7.114-5.473-13.032-12.565-13.588z" fill="#a39ba3"/><g fill="#c9e0fd"><g><path d="m106.264 155.443h-30.359c-3.006 0-5.442-2.437-5.442-5.442v-23.357c0-3.006 2.437-5.442 5.442-5.442h30.358c3.006 0 5.442 2.437 5.442 5.442v23.356c.001 3.006-2.435 5.443-5.441 5.443z"/><path d="m181.957 155.443h-30.358c-3.006 0-5.442-2.437-5.442-5.442v-23.357c0-3.006 2.437-5.442 5.442-5.442h30.358c3.006 0 5.442 2.437 5.442 5.442v23.356c0 3.006-2.436 5.443-5.442 5.443z"/><path d="m240.451 121.2h-13.159c-3.006 0-5.442 2.437-5.442 5.442v23.358c0 3.006 2.437 5.442 5.442 5.442h13.159z"/></g><g><path d="m106.264 222.879h-30.359c-3.006 0-5.442-2.437-5.442-5.442v-23.357c0-3.006 2.437-5.442 5.442-5.442h30.358c3.006 0 5.442 2.437 5.442 5.442v23.357c.001 3.005-2.435 5.442-5.441 5.442z"/><path d="m181.957 222.879h-30.358c-3.006 0-5.442-2.437-5.442-5.442v-23.357c0-3.006 2.437-5.442 5.442-5.442h30.358c3.006 0 5.442 2.437 5.442 5.442v23.357c0 3.005-2.436 5.442-5.442 5.442z"/><path d="m240.451 188.637h-13.159c-3.006 0-5.442 2.437-5.442 5.442v23.357c0 3.006 2.437 5.442 5.442 5.442h13.159z"/></g><g><path d="m106.264 290.316h-30.359c-3.006 0-5.442-2.437-5.442-5.442v-23.357c0-3.006 2.437-5.442 5.442-5.442h30.358c3.006 0 5.442 2.437 5.442 5.442v23.357c.001 3.005-2.435 5.442-5.441 5.442z"/><path d="m144.551 366.793h-67.188c-3.811 0-6.9-3.089-6.9-6.9v-20.442c0-3.811 3.089-6.9 6.9-6.9h67.188c3.811 0 6.9 3.089 6.9 6.9v20.442c0 3.811-3.089 6.9-6.9 6.9z"/><path d="m181.957 290.316h-30.358c-3.006 0-5.442-2.437-5.442-5.442v-23.357c0-3.006 2.437-5.442 5.442-5.442h30.358c3.006 0 5.442 2.437 5.442 5.442v23.357c0 3.005-2.436 5.442-5.442 5.442z"/><path d="m240.451 256.074h-13.159c-3.006 0-5.442 2.437-5.442 5.442v23.357c0 3.006 2.437 5.442 5.442 5.442h13.159z"/></g></g></g><path d="m188.533 332.551c-2.695 0-4.879 2.185-4.879 4.879v124.162h56.797v-129.041z" fill="#f7f4f7"/><path d="m258.213 332.551h-22.429v129.041h27.308v-124.162c0-2.694-2.184-4.879-4.879-4.879z" fill="#edeaed"/></g></g></g><path d="m425.015 452.311h-400.015c-9.665 0-17.5 7.835-17.5 17.5s7.835 17.5 17.5 17.5h415.849l1.667-2.227v-15.273c-.001-9.665-7.836-17.5-17.501-17.5z" fill="#efc984"/><path d="m487 452.311h-63.651c9.665 0 17.5 7.835 17.5 17.5v17.5h46.151c9.665 0 17.5-7.835 17.5-17.5s-7.835-17.5-17.5-17.5z" fill="#e8ae4d"/></g><g fill="#bcd6f9"><path d="m263.092 150v-23.357c0-3.006-2.437-5.442-5.442-5.442h-21.866v34.242h21.866c3.006 0 5.442-2.437 5.442-5.443z"/><path d="m263.092 217.437v-23.357c0-3.006-2.437-5.442-5.442-5.442h-21.866v34.242h21.866c3.006-.001 5.442-2.438 5.442-5.443z"/><path d="m263.092 284.873v-23.357c0-3.006-2.437-5.442-5.442-5.442h-21.866v34.242h21.866c3.006 0 5.442-2.437 5.442-5.443z"/></g></g><g fill="#c9e0fd"><g><path d="m366.776 321.886h-30.628c-3.478 0-6.297-2.819-6.297-6.297v-24.294c0-3.478 2.819-6.297 6.297-6.297h30.628c3.478 0 6.297 2.819 6.297 6.297v24.294c0 3.478-2.819 6.297-6.297 6.297z"/><path d="m366.776 391.103h-30.628c-3.478 0-6.297-2.819-6.297-6.297v-24.294c0-3.478 2.819-6.297 6.297-6.297h30.628c3.478 0 6.297 2.819 6.297 6.297v24.294c0 3.478-2.819 6.297-6.297 6.297z"/></g><g><path d="m436.537 321.886h-30.628c-3.478 0-6.297-2.819-6.297-6.297v-24.294c0-3.478 2.819-6.297 6.297-6.297h30.628c3.478 0 6.297 2.819 6.297 6.297v24.294c-.001 3.478-2.82 6.297-6.297 6.297z"/><path d="m436.537 391.103h-30.628c-3.478 0-6.297-2.819-6.297-6.297v-24.294c0-3.478 2.819-6.297 6.297-6.297h30.628c3.478 0 6.297 2.819 6.297 6.297v24.294c-.001 3.478-2.82 6.297-6.297 6.297z"/></g></g></g><g><g><path d="m487 444.811h-6.347v-123.851c0-4.142-3.357-7.5-7.5-7.5s-7.5 3.358-7.5 7.5v123.852h-159.104v-203.88h152.975c3.38 0 6.13 2.75 6.13 6.129v38.565c0 4.142 3.357 7.5 7.5 7.5s7.5-3.358 7.5-7.5v-38.565c0-11.651-9.479-21.129-21.13-21.129h-152.975v-136.294c0-10.913-8.491-20.13-19.352-21.049v-15.045c0-10.956-8.556-20.209-19.479-21.065l-194.24-15.224c-12.265-.969-22.78 8.758-22.78 21.065v12.011c-11.123.95-19.351 10.254-19.351 21.05v373.429h-6.347c-13.785 0-25 11.215-25 25s11.215 25 25 25h462c13.785 0 25-11.215 25-25s-11.215-24.999-25-24.999zm-421.302-406.49c0-3.592 3.057-6.392 6.609-6.111l194.24 15.223c3.168.249 5.65 2.933 5.65 6.111v13.863l-206.5-16.184v-12.902zm-19.351 33.061c0-3.621 3.097-6.399 6.608-6.111l232.942 18.256c3.169.249 5.651 2.933 5.651 6.111v355.173h-20.957v-107.38c0-6.826-5.553-12.379-12.379-12.379h-69.68c-6.826 0-12.379 5.553-12.379 12.379v48.653c0 4.142 3.358 7.5 7.5 7.5s7.5-3.358 7.5-7.5v-46.032h64.438v104.759h-64.438v-23.664c0-4.142-3.358-7.5-7.5-7.5s-7.5 3.358-7.5 7.5v23.664h-129.806zm440.653 408.429h-462c-5.514 0-10-4.486-10-10s4.486-10 10-10h462c5.514 0 10 4.486 10 10s-4.486 10-10 10z"/><path d="m75.905 162.943h30.358c7.137 0 12.943-5.806 12.943-12.942v-23.357c0-7.136-5.806-12.942-12.943-12.942h-30.358c-7.136 0-12.942 5.806-12.942 12.942v23.357c0 7.136 5.806 12.942 12.942 12.942zm2.058-34.242h26.244v19.242h-26.244z"/><path d="m151.599 162.943h30.358c7.136 0 12.942-5.806 12.942-12.942v-23.357c0-7.136-5.806-12.942-12.942-12.942h-30.358c-7.136 0-12.942 5.806-12.942 12.942v23.357c-.001 7.136 5.805 12.942 12.942 12.942zm2.057-34.242h26.243v19.242h-26.243z"/><path d="m227.292 162.943h30.358c7.137 0 12.942-5.806 12.942-12.942v-23.357c0-7.136-5.806-12.942-12.942-12.942h-30.358c-7.136 0-12.942 5.806-12.942 12.942v23.357c-.001 7.136 5.805 12.942 12.942 12.942zm2.057-34.242h26.243v19.242h-26.243z"/><path d="m75.905 230.38h30.358c7.137 0 12.943-5.806 12.943-12.942v-23.358c0-7.136-5.806-12.942-12.943-12.942h-30.358c-7.136 0-12.942 5.806-12.942 12.942v23.357c0 7.137 5.806 12.943 12.942 12.943zm2.058-34.242h26.244v19.242h-26.244z"/><path d="m151.599 230.38h30.358c7.136 0 12.942-5.806 12.942-12.942v-23.358c0-7.136-5.806-12.942-12.942-12.942h-30.358c-7.136 0-12.942 5.806-12.942 12.942v23.357c-.001 7.137 5.805 12.943 12.942 12.943zm2.057-34.242h26.243v19.242h-26.243z"/><path d="m227.292 230.38h30.358c7.137 0 12.942-5.806 12.942-12.942v-23.358c0-7.136-5.806-12.942-12.942-12.942h-30.358c-7.136 0-12.942 5.806-12.942 12.942v23.357c-.001 7.137 5.805 12.943 12.942 12.943zm2.057-34.242h26.243v19.242h-26.243z"/><path d="m75.905 297.816h30.358c7.137 0 12.943-5.806 12.943-12.942v-23.357c0-7.136-5.806-12.942-12.943-12.942h-30.358c-7.136 0-12.942 5.806-12.942 12.942v23.357c0 7.136 5.806 12.942 12.942 12.942zm2.058-34.242h26.244v19.242h-26.244z"/><path d="m144.551 325.052h-67.188c-7.94 0-14.4 6.46-14.4 14.4v20.442c0 7.94 6.46 14.4 14.4 14.4h67.188c7.94 0 14.4-6.46 14.4-14.4v-20.442c0-7.94-6.46-14.4-14.4-14.4zm-.6 34.242h-65.988v-19.242h65.988z"/><path d="m151.599 297.816h30.358c7.136 0 12.942-5.806 12.942-12.942v-23.357c0-7.136-5.806-12.942-12.942-12.942h-30.358c-7.136 0-12.942 5.806-12.942 12.942v23.357c-.001 7.136 5.805 12.942 12.942 12.942zm2.057-34.242h26.243v19.242h-26.243z"/><path d="m227.292 297.816h30.358c7.137 0 12.942-5.806 12.942-12.942v-23.357c0-7.136-5.806-12.942-12.942-12.942h-30.358c-7.136 0-12.942 5.806-12.942 12.942v23.357c-.001 7.136 5.805 12.942 12.942 12.942zm2.057-34.242h26.243v19.242h-26.243z"/><path d="m380.573 291.297c0-7.607-6.189-13.797-13.797-13.797h-30.628c-7.607 0-13.797 6.189-13.797 13.797v24.293c0 7.607 6.189 13.797 13.797 13.797h30.628c7.607 0 13.797-6.189 13.797-13.797zm-15 23.09h-28.222v-21.887h28.222z"/><path d="m366.776 346.717h-30.628c-7.607 0-13.797 6.189-13.797 13.797v24.293c0 7.607 6.189 13.797 13.797 13.797h30.628c7.607 0 13.797-6.189 13.797-13.797v-24.293c0-7.608-6.189-13.797-13.797-13.797zm-1.203 36.887h-28.222v-21.887h28.222z"/><path d="m450.333 291.297c0-7.607-6.189-13.797-13.797-13.797h-30.627c-7.607 0-13.797 6.189-13.797 13.797v24.293c0 7.607 6.189 13.797 13.797 13.797h30.627c7.607 0 13.797-6.189 13.797-13.797zm-15 23.09h-28.221v-21.887h28.221z"/><path d="m436.536 346.717h-30.627c-7.607 0-13.797 6.189-13.797 13.797v24.293c0 7.607 6.189 13.797 13.797 13.797h30.627c7.607 0 13.797-6.189 13.797-13.797v-24.293c0-7.608-6.189-13.797-13.797-13.797zm-1.203 36.887h-28.221v-21.887h28.221z"/></g></g></g></svg>