<svg id="Capa_1" enable-background="new 0 0 511.998 511.998" height="512" viewBox="0 0 511.998 511.998" width="512" xmlns="http://www.w3.org/2000/svg"><g><g><g><path clip-rule="evenodd" d="m220.532 182.407c-12.615 9.706-24.039 21.398-33.762 34.992-40.31 56.305-40.48 129.268-6.066 184.665 0 .028.028.057.028.085 10.262 16.517 23.613 31.473 39.885 43.96.057.028.113.085.17.114 1.361 1.078 2.778 2.1 4.195 3.122 74.526 53.495 178.249 36.354 231.684-38.255 48.021-67.061 39.063-157.733-17.349-214.236-6.378-6.357-13.323-12.288-20.864-17.709-7.54-5.42-15.393-10.103-23.472-14.076-37.532-18.56-79.798-21.682-118.436-10.784-.255.085-1.729.369-1.984.426l1.077 32.409 38.893 11.721c25.598-1.618 51.989 5.279 74.469 21.426 51.848 37.205 63.754 109.431 26.59 161.337-32.741 45.776-92.696 60.448-141.964 37.801-6.633-3.037-13.068-6.754-19.191-11.182-8.788-6.272-16.385-13.565-22.848-21.597-31.636-39.447-34.641-96.604-3.742-139.74 8.646-12.09 19.191-22.022 30.955-29.657.68-.454 4.195-2.384 4.904-2.838l-9.496-31.246-32.6-1.646c-.254.17-.821.709-1.076.908z" fill="#fece85" fill-rule="evenodd"/></g><g><path clip-rule="evenodd" d="m135.149 31.485c-4.932 0-5.329 2.242-8.079 6.329l-17.519 24.69c-2.693 4.257-2.636 5.335.482 9.677l36.228 50.487 26.703 17.198 27.809-17.198 36.256-50.487c3.09-4.342 3.175-5.42.482-9.677l-17.519-24.69c-2.75-4.087-3.147-6.329-8.079-6.329h-4.791-6.321-27.27-27.27-6.322z" fill="#2ed1e2" fill-rule="evenodd"/></g><g><path clip-rule="evenodd" d="m173.531 120.426c-9.298 0-18.398.766-27.27 2.242-78.721 12.998-138.761 81.477-138.761 163.976 0 91.808 74.327 166.218 166.031 166.218 16.413 0 32.089-2.327 47.085-6.754-16.271-12.487-29.623-27.443-39.885-43.96 0-.028-.028-.057-.028-.085-2.636.17-4.479.227-7.172.227-63.782 0-115.516-51.764-115.516-115.646 0-63.854 51.734-115.618 115.516-115.618 17.15 0 33.45 3.746 48.077 10.472 16.498 7.549 30.899 18.901 42.096 32.892 15.846 19.809 25.314 44.925 25.314 72.254 0 42.938-22.706 80.03-57.432 99.981 6.463 8.031 14.06 15.325 22.848 21.597 6.123 4.427 12.558 8.145 19.191 11.182 39.743-30.366 65.936-78.838 65.936-132.759 0-32.239-9.156-62.321-25.031-87.806-10.602-16.999-24.152-31.955-39.97-44.13-21.176-16.233-46.348-27.528-73.789-32.04-8.842-1.477-17.97-2.243-27.24-2.243z" fill="#fece85" fill-rule="evenodd"/></g><g><path clip-rule="evenodd" d="m394.925 102.887.057 62.179 13.267 28.692 31.069 3.093 58.821-19.894c5.046-1.703 5.726-2.554 6.01-7.577l.142-30.281c.142-4.91 1.134-6.981-2.891-9.876l-3.884-2.781-5.131-3.689-22.168-15.893-22.168-15.92-5.159-3.689-3.884-2.781c-3.997-2.895-5.641-1.277-10.233.426l-28.603 9.848c-4.678 1.9-5.245 2.808-5.245 8.143z" fill="#2ed1e2" fill-rule="evenodd"/></g><g><path clip-rule="evenodd" d="m304.327 479.568c57.404 6.016 116.31-18.163 152.34-68.48 48.021-67.061 39.063-157.733-17.377-214.236-6.35-6.357-13.295-12.288-20.835-17.709-7.54-5.42-15.393-10.103-23.472-14.076-2.154-1.078-4.337-2.1-6.52-3.065 4.422 20.462 7.257 42.002 8.277 64.308 45.214 38.596 54.087 106.082 18.851 155.292-16.555 23.129-40.027 38.312-65.568 44.754-13.153 21.342-28.574 39.391-45.696 53.212z" fill="#fdb440" fill-rule="evenodd"/></g><g><path clip-rule="evenodd" d="m131.209 447.414c13.493 3.547 27.696 5.449 42.323 5.449 16.413 0 32.089-2.327 47.085-6.754-16.271-12.487-29.623-27.443-39.885-43.96 0-.028-.028-.057-.028-.085-2.636.17-4.479.227-7.172.227-3.118 0-6.208-.142-9.241-.369-9.696 17.198-20.836 32.522-33.082 45.492zm71.293-272.727c6.605 1.703 13.012 4.001 19.106 6.811 16.498 7.549 30.899 18.901 42.096 32.892 15.846 19.809 25.314 44.925 25.314 72.254 0 42.938-22.706 80.03-57.432 99.981 6.463 8.031 14.06 15.325 22.848 21.597 6.123 4.427 12.558 8.145 19.191 11.182 39.743-30.366 65.936-78.838 65.936-132.759 0-32.239-9.156-62.321-25.031-87.806-10.602-16.999-24.152-31.955-39.97-44.13-21.176-16.233-46.348-27.528-73.789-32.04-3.175-.539-6.378-.965-9.638-1.305 4.963 16.913 8.818 34.763 11.369 53.323z" fill="#fdb440" fill-rule="evenodd"/></g><g><path clip-rule="evenodd" d="m127.07 37.813-17.519 24.662v.028c-.765 1.22-1.332 2.185-1.644 3.065h131.249c-.312-.88-.879-1.845-1.644-3.065l-17.519-24.69c-2.75-4.087-3.147-6.329-8.079-6.329h-4.791-6.321-27.27-27.27-6.322-4.791c-3.175 0-4.479.937-5.755 2.696-.68.965-1.361 2.157-2.324 3.604z" fill="#99e6fc" fill-rule="evenodd"/></g><g><path clip-rule="evenodd" d="m397.051 96.275 102.42 80.2c1.814-.681 2.891-1.277 3.572-2.214.737-1.05.964-2.497 1.106-4.881l.142-30.281c.142-4.91 1.134-6.981-2.891-9.876l-3.884-2.781-5.131-3.689-22.168-15.893-22.168-15.92-5.159-3.689-3.884-2.781c-3.997-2.895-5.641-1.277-10.233.426l-28.603 9.848c-1.361.538-2.382 1.02-3.119 1.531z" fill="#99e6fc" fill-rule="evenodd"/></g><g><path clip-rule="evenodd" d="m182.801 31.485 16.498 25.4c2.296 3.973 2.58 5.42.709 8.684h39.148c-.312-.88-.879-1.845-1.644-3.065l-17.519-24.69c-2.75-4.087-3.147-6.329-8.079-6.329h-4.791-6.321z" fill="#2ed1e2" fill-rule="evenodd"/></g><g><path clip-rule="evenodd" d="m198.817 67.47-34.952 53.211c3.203-.17 6.435-.255 9.666-.255 9.298 0 18.398.738 27.27 2.214l36.228-50.459s0 0 0-.028c.028-.028.085-.085.113-.142 2.126-2.98 2.75-4.399 2.013-6.442h-39.148c-.311.567-.708 1.191-1.19 1.901z" fill="#00b1cd" fill-rule="evenodd"/></g><g><path clip-rule="evenodd" d="m418.454 179.143c7.54 5.392 14.514 11.323 20.864 17.709l58.821-19.894c.482-.17.935-.341 1.332-.482l-25.881-20.263c-.737.341-1.673.71-2.835 1.078l-56.298 19.043c1.332.908 2.664 1.844 3.997 2.809z" fill="#00b1cd" fill-rule="evenodd"/></g><g><path clip-rule="evenodd" d="m476.793 149.713c-.227 3.888-.68 5.279-3.203 6.499l25.881 20.263c1.786-.681 2.863-1.277 3.543-2.185l.028-.028c.737-1.05.964-2.497 1.106-4.881l.142-30.281c.142-4.91 1.134-6.981-2.891-9.876l-3.884-2.781-5.131-3.689-17.746-12.714c3.317 2.639 2.41 4.739 2.296 9.394z" fill="#2ed1e2" fill-rule="evenodd"/></g></g><g><path d="m505.766 123.126-62.361-44.731c-6.705-4.855-11.918-2.702-15.37-1.276-.542.224-30.565 10.625-30.691 10.677-1.309.532-2.455 1.086-3.468 1.677-.744.344-1.438.815-2.051 1.406-3.231 2.647-4.401 6.193-4.401 12.016l.046 50.534c-34.997-14.409-73.914-16.99-111.344-6.796-18.411-13.556-39.578-23.566-62.493-29.014l29.507-41.088c5.765-8.003 3.003-14.017 2.413-14.952-.459-.981-20.112-29.144-20.42-29.638-2.092-3.357-4.957-7.954-13.221-7.954h-76.765c-8.264 0-11.129 4.597-13.221 7.954-.308.494-20.169 29.016-20.663 30.15-.325.619-.568 1.286-.71 1.992-1.152 4.094-.053 7.687 3.384 12.473l29.47 41.069c-76.402 18.171-133.407 87.052-133.407 169.019 0 95.789 77.846 173.718 173.531 173.718 15.493 0 30.786-2.051 45.533-6.048.517.377 1.035.755 1.545 1.122 29.801 21.392 64.775 32.577 100.733 32.577 9.476 0 19.021-.777 28.557-2.349 45.758-7.542 85.841-32.476 112.866-70.209 47.712-66.619 41.459-155.869-10.087-215.212l47.86-16.179c7.944-2.681 10.642-6.146 11.1-14.261.007-.129.217-31.907.255-32.49.253-3.945.601-9.349-6.127-14.187zm-71.075-32.522 62.294 44.684c-.016.334-.315 29.47-.315 29.47l-84.557-66.195s22.281-7.842 22.578-7.959zm-32.259 19.43 81.507 63.807-42.712 14.439c-5.705-5.418-11.834-10.517-18.401-15.231-6.546-4.697-13.347-8.891-20.348-12.591zm-267.213-71.049h76.627c.18.278 13.325 19.083 13.325 19.083h-103.277s13.145-18.805 13.325-19.083zm-15.319 34.083h107.259l-29.804 41.502c-7.791-1.076-15.742-1.645-23.823-1.645-8.09 0-16.048.57-23.847 1.648zm-104.9 213.576c0-87.518 71.117-158.718 158.531-158.718s158.531 71.201 158.531 158.718c0 47.741-22.116 93.734-59.382 123.958-4.785-2.454-9.422-5.28-13.873-8.474-5.8-4.162-11.06-8.802-15.775-13.821 33.653-22.725 53.487-60.087 53.487-101.663 0-28.691-9.856-55.12-26.354-76.076-.045-.076-.083-.155-.131-.23-.351-.548-.767-1.028-1.222-1.452-11.692-14.33-26.539-25.981-43.47-33.886-.362-.207-.737-.383-1.125-.527-15.463-7.03-32.625-10.948-50.685-10.948-40.121 0-77.824 19.668-100.898 52.673-1.195 1.746-2.242 3.329-3.202 4.838-2.222 3.496-1.189 8.131 2.307 10.353 3.494 2.222 8.13 1.189 10.353-2.307.868-1.365 1.823-2.809 2.879-4.352 20.228-28.933 53.335-46.206 88.562-46.206 11.686 0 22.941 1.875 33.49 5.329-9.829 8.674-18.672 18.443-26.349 29.176-20.4 28.489-31.625 62.001-32.462 96.914-.711 29.645 6.044 58.663 19.614 84.694-56.917-2.981-102.309-50.28-102.309-107.995 0-9.314 1.196-18.605 3.554-27.615 1.049-4.007-1.349-8.106-5.356-9.155-4.009-1.052-8.106 1.349-9.155 5.356-2.683 10.249-4.043 20.819-4.043 31.414 0 67.903 55.185 123.146 123.016 123.146 1.164 0 2.183-.011 3.169-.035 7.903 12.022 17.198 22.928 27.758 32.58-10.122 1.995-20.471 3.027-30.926 3.027-87.417.003-158.534-71.198-158.534-158.716zm266.519 0c0 36.968-17.825 70.128-48.007 89.985-25.76-36.578-27.043-87.005.434-125.382 7.643-10.688 16.987-19.727 27.774-26.933 12.465 17.628 19.799 39.137 19.799 62.33zm169.049 120.077c-24.689 34.474-61.308 57.253-103.109 64.143-41.767 6.884-83.708-2.923-118.092-27.605-1.383-.997-2.69-1.939-3.921-2.915-.036-.028-.071-.056-.108-.084-15.143-11.561-27.946-25.624-38.061-41.796-.119-.217-.249-.428-.388-.631-33.809-54.692-31.482-123.755 5.981-176.072 8.461-11.829 18.466-22.371 29.736-31.412 11.115 5.701 21.116 13.28 29.592 22.309-11.783 8.071-22.031 18.088-30.45 29.86-32.694 45.664-29.63 106.322 3.642 148.299.283.419.59.813.938 1.156 6.734 8.286 14.655 15.826 23.735 22.341 6.495 4.661 13.339 8.631 20.44 11.905.024.011.047.023.07.034 15.976 7.352 33.263 11.147 50.886 11.147 6.72 0 13.494-.552 20.257-1.667 32.425-5.35 60.827-23.023 79.974-49.765 2.411-3.368 1.636-8.053-1.732-10.464-3.367-2.411-8.052-1.636-10.464 1.732-16.813 23.482-41.75 39.001-70.219 43.697-17.382 2.867-34.807 1.483-51.081-3.857 37.066-33.002 58.87-80.843 58.87-130.431 0-28.979-7.135-56.318-19.723-80.364 20.503 1.076 40.485 8.007 57.29 20.079 37.872 27.168 54.246 77.086 39.818 121.391-1.283 3.938.871 8.171 4.809 9.454.771.251 1.554.371 2.324.371 3.16 0 6.099-2.013 7.13-5.18 8.116-24.923 8.045-51.378-.204-76.504-8.243-25.109-23.851-46.452-45.13-61.717-21.779-15.646-48.239-23.734-74.951-23.011-7.897-11.969-17.228-22.91-27.754-32.568 34.326-6.897 69.499-2.284 100.614 12.992.209.119.423.227.644.325 7.656 3.802 15.067 8.24 22.151 13.323 71.055 51.005 87.424 150.363 36.486 221.485z"/></g></g></svg>