<?xml version="1.0" encoding="iso-8859-1"?>
<!-- Generator: Adobe Illustrator 19.0.0, SVG Export Plug-In . SVG Version: 6.00 Build 0)  -->
<svg version="1.1" id="Capa_1" xmlns="http://www.w3.org/2000/svg" xmlns:xlink="http://www.w3.org/1999/xlink" x="0px" y="0px"
	 viewBox="0 0 512 512" style="enable-background:new 0 0 512 512;" xml:space="preserve">
<g>
	<path style="fill:#AD826E;" d="M235.35,88.323c47.711,21.069,94.021,23.018,121.436,11.063
		c13.133-5.727,21.929-14.642,24.47-26.176c-22.152,8.229-36.477-0.846-47.136-12.892c-18.569-20.988-44.45-32.983-75.269-32.895
		c-48.508,0.138-79.093,21.035-101.204,70.284C158.708,98.085,196.582,71.203,235.35,88.323z"/>
	<path style="fill:#FFD3A3;" d="M356.785,99.386c-27.416,11.954-73.725,10.005-121.436-11.063
		c-38.768-17.119-76.642,9.763-77.702,9.382c-2.433,4.574-6.004,13.94-6.004,34.979c0,29.38,12.038,55.949,31.451,75.043
		c9.336,9.184,20.378,16.638,32.607,21.844v20.469l-2.398-0.002l45.454,40.678l43.264-40.676v-22.235
		c10.675-5.07,20.362-11.887,28.691-20.079c19.414-19.094,31.454-45.66,31.454-75.043
		C362.165,121.048,360.272,109.852,356.785,99.386z"/>
	<g>
		<path style="fill:#AD826E;" d="M215.702,229.572c-12.229-5.206-23.271-12.662-32.607-21.844h-48.329
			c-14.735,0-26.793,12.058-26.793,26.795v25.54c12.56-7.479,26.998-11.461,39.297-10.021h8.646h49.791h5.198l2.399-0.002
			l2.398,0.002V229.572z"/>
		<path style="fill:#AD826E;" d="M302.021,227.806v22.235h8.266h52.303h0.737c18.189,0,37.48,4.456,51.001,15.123v-30.642
			c0-14.738-12.058-26.795-26.793-26.795h-56.822C322.383,215.919,312.696,222.736,302.021,227.806z"/>
	</g>
	<rect x="310.282" y="250.036" style="fill:#FF984A;" width="52.303" height="166.451"/>
	<g>
		<path style="fill:#FFD3A3;" d="M203.933,416.491h-48.018H44.133c-18.725,0-34.043,15.318-34.043,34.043
			c0,18.724,15.319,34.043,34.043,34.043h159.8c10.788,0,20.446-5.086,26.695-12.977c4.598-5.806,7.348-13.131,7.348-21.066
			C237.976,431.81,222.658,416.491,203.933,416.491z"/>
		<path style="fill:#FFD3A3;" d="M308.067,416.491c-18.725,0-34.043,15.318-34.043,34.043c0,7.936,2.751,15.259,7.348,21.066
			c6.249,7.89,15.907,12.977,26.695,12.977h159.8c18.725,0,34.043-15.32,34.043-34.043c0-14.652-9.38-27.219-22.433-31.994
			c-3.627-1.326-7.538-2.049-11.61-2.049H362.589h-52.303H308.067z"/>
	</g>
	<g>
		<path style="fill:#D8D8E7;" d="M362.589,250.041v166.45h105.278c4.072,0,7.983,0.723,11.61,2.049L429.02,284.936
			c-3.074-8.14-8.223-14.668-14.693-19.772c-13.52-10.667-32.812-15.123-51.001-15.123L362.589,250.041L362.589,250.041z"/>
		<path style="fill:#D8D8E7;" d="M274.024,450.534L274.024,450.534L274.024,450.534z M310.287,416.491v-166.45h-8.266
			l-43.264,40.676l-45.454-40.678l-2.399,0.002h-5.198v166.496c17.908,0.93,32.27,15.868,32.27,33.998
			c0,7.936-2.751,15.261-7.348,21.066h50.745c-4.598-5.808-7.348-13.131-7.348-21.066c0-18.726,15.319-34.043,34.043-34.043H310.287
			z"/>
	</g>
	<path style="fill:#FF984A;" d="M205.706,416.537V250.041h-49.791v166.45h48.018C204.528,416.491,205.119,416.506,205.706,416.537z"
		/>
	<path style="fill:#D8D8E7;" d="M155.915,416.491v-166.45h-8.646c-9.861-1.155-21.096,1.176-31.637,6
		c-46.896,25.232-66.989,118.674-83.655,162.705c3.779-1.456,7.879-2.254,12.155-2.254h111.782V416.491z"/>
</g>
<path d="M487.406,410.977l-48.947-129.607c-2.985-7.902-7.736-14.911-14.042-20.808v-26.041c0-20.338-16.546-36.885-36.883-36.885
	H352.23c0.568-0.831,1.131-1.666,1.678-2.513c12.004-18.61,18.348-40.202,18.348-62.44c0-9.564-1.178-19.015-3.49-28.203
	c11.834-7.1,19.682-17.016,22.344-29.102c0.794-3.606-0.445-7.358-3.232-9.782c-2.787-2.424-6.674-3.132-10.135-1.845
	c-4.522,1.68-8.781,2.533-12.657,2.533c-8.447,0-15.666-3.902-23.408-12.652c-21.011-23.747-49.534-36.299-82.485-36.299h-0.368
	c-52.655,0.149-86.672,23.599-110.273,76.014c-4.704,9.073-6.995,21.942-6.995,39.337c0,23.718,7.227,46.207,19.992,64.953h-26.78
	c-20.337,0-36.883,16.546-36.883,36.885v21.612c-9.426,7.952-18.217,18.741-26.326,32.367
	c-17.038,28.626-28.879,65.511-38.394,95.149c-3.229,10.059-6.303,19.627-9.194,27.647C9.751,418.634,0,433.464,0,450.534
	c0,24.335,19.798,44.133,44.133,44.133h159.8c12.185,0,23.232-4.965,31.226-12.976h41.682c7.994,8.011,19.04,12.976,31.226,12.976
	h159.8c24.336,0,44.133-19.798,44.133-44.133C512,433.212,501.965,418.199,487.406,410.977z M464.108,406.402h-33.864
	c-0.103-0.412-0.223-0.823-0.38-1.23l-12.57-32.356c-2.018-5.193-7.864-7.768-13.058-5.751c-5.194,2.018-7.769,7.865-5.751,13.058
	l10.209,26.279H372.68V260.584c19.618,1.881,40.099,9.903,46.902,27.917L464.108,406.402z M320.376,406.402V260.131h32.123v146.271
	H320.376z M404.238,234.523v13.176c-14.946-6.361-30.353-7.747-40.911-7.747h-51.216v-5.969c8.191-4.469,15.774-9.905,22.619-16.166
	h52.804C396.744,217.817,404.238,225.311,404.238,234.523z M258.881,37.513l0.311-0.001c27.005,0,50.302,10.198,67.373,29.491
	c10.199,11.527,21.184,17.84,33.446,19.186c-9.888,6.606-25.35,10.447-44.058,10.447c-23.731,0-50.908-6.23-76.525-17.542
	c-9.869-4.358-20.483-6.568-31.547-6.568c-9.985,0-19.28,1.803-27.285,4.21C199.243,49.297,223.351,37.613,258.881,37.513z
	 M207.878,92.705c8.239,0,16.11,1.631,23.395,4.848c28.536,12.601,57.818,19.261,84.677,19.261c12.565,0,23.99-1.515,33.953-4.355
	c1.433,6.616,2.172,13.383,2.172,20.226c0,36.552-21.347,70.312-54.385,86.009c-3.518,1.671-5.759,5.218-5.759,9.113v17.871
	l-33.343,31.349l-32.797-29.352v-18.102c0-4.045-2.415-7.699-6.137-9.284c-10.998-4.683-20.779-11.26-29.03-19.26
	c-0.248-0.277-0.511-0.542-0.787-0.791c-17.664-17.532-28.104-41.655-28.104-67.552c0-11.97,1.248-21.397,3.622-27.568
	C171.468,101.764,188.439,92.705,207.878,92.705z M195.616,406.402h-29.612V260.131h29.612V406.402z M118.062,234.523
	c0-9.212,7.493-16.706,16.704-16.706h44.252c7.859,7.186,16.779,13.344,26.596,18.213v3.922h-57.778
	c-10.418-1.129-20.351,0.183-29.773,3.894L118.062,234.523L118.062,234.523z M88.896,298.822
	c16.947-28.475,35.572-41.166,56.929-38.784v146.364h-35.533l10.037-25.839c2.018-5.194-0.557-11.04-5.751-13.058
	c-5.195-2.022-11.041,0.557-13.058,5.751l-12.398,31.917c-0.157,0.406-0.277,0.818-0.38,1.23H46.993
	c1.751-5.272,3.542-10.847,5.383-16.584C61.579,361.153,73.032,325.478,88.896,298.822z M44.133,474.489
	c-13.208,0-23.953-10.745-23.953-23.953c0-10.175,6.379-18.882,15.346-22.347c0.097-0.036,0.192-0.074,0.287-0.113
	c2.593-0.964,5.396-1.492,8.321-1.492h159.8c13.208,0,23.953,10.746,23.953,23.953c0,5.427-1.816,10.436-4.87,14.457
	c-0.218,0.25-0.424,0.511-0.615,0.782c-4.397,5.319-11.043,8.715-18.467,8.715h-159.8V474.489z M246.684,461.511
	c0.902-3.51,1.382-7.189,1.382-10.977c0-20.225-13.681-37.305-32.27-42.5V265.809l36.232,32.428
	c1.918,1.715,4.324,2.571,6.728,2.571c2.487,0,4.972-0.915,6.913-2.739l34.528-32.465v141.516
	c-20.591,3.723-36.263,21.768-36.263,43.415c0,3.788,0.481,7.465,1.382,10.977L246.684,461.511L246.684,461.511z M467.867,474.489
	h-159.8c-7.424,0-14.07-3.395-18.467-8.715c-0.193-0.272-0.399-0.532-0.615-0.782c-3.053-4.021-4.87-9.029-4.87-14.457
	c0-13.209,10.746-23.953,23.953-23.953h159.8c1.723,0,3.404,0.188,5.025,0.534c1.884,1.882,4.455,2.961,7.131,2.961
	c0.09,0,0.181-0.01,0.27-0.012c6.905,4.207,11.526,11.809,11.526,20.47C491.82,463.743,481.075,474.489,467.867,474.489z"/>
<path d="M116.451,357.838c1.298,0.557,2.646,0.821,3.973,0.821c3.913,0,7.636-2.291,9.277-6.114l0.221-0.515
	c2.198-5.121-0.173-11.053-5.293-13.251c-5.122-2.199-11.053,0.173-13.251,5.293l-0.221,0.515
	C108.961,349.709,111.331,355.642,116.451,357.838z"/>
<path d="M407.605,344.074c-2.198-5.122-8.129-7.494-13.251-5.293c-5.121,2.198-7.491,8.13-5.293,13.251l0.221,0.515
	c1.641,3.824,5.364,6.114,9.277,6.114c1.327,0,2.677-0.264,3.973-0.821c5.121-2.198,7.491-8.13,5.293-13.251L407.605,344.074z"/>
<g>
</g>
<g>
</g>
<g>
</g>
<g>
</g>
<g>
</g>
<g>
</g>
<g>
</g>
<g>
</g>
<g>
</g>
<g>
</g>
<g>
</g>
<g>
</g>
<g>
</g>
<g>
</g>
<g>
</g>
</svg>
